<svg xmlns="http://www.w3.org/2000/svg" width="253.183" height="53.003" viewBox="0 0 253.183 53.003"><defs><style>.a{fill:#639;}.b{fill:#fc0;}.c{fill:#f90;}</style></defs><g transform="translate(0)"><path class="a" d="M132.236,47.084A6.433,6.433,0,0,1,130.48,43.2q0-1.723,2.9-4.557a5.122,5.122,0,0,1,3.578-1.619q1.883,0,5.263,3.375a10.3,10.3,0,0,0,2.7,2.194,6.43,6.43,0,0,0,3.239,1.045q6.284,0,6.28-5.131a3.028,3.028,0,0,0-1.718-2.6,12.672,12.672,0,0,0-4.288-1.52,36.247,36.247,0,0,1-5.536-1.516,36.165,36.165,0,0,1-5.536-2.467,11.156,11.156,0,0,1-4.288-4.491,14.88,14.88,0,0,1-1.723-7.39A14.165,14.165,0,0,1,135.78,8.169q4.425-4.415,12.051-4.42A24.68,24.68,0,0,1,155.2,4.808a14.352,14.352,0,0,1,4.627,2.128l1.685,1.285c1.412,1.3,2.095,2.405,2.095,3.3a7.5,7.5,0,0,1-1.619,3.714q-2.3,3.375-4.707,3.375a6.971,6.971,0,0,1-3.512-1.346,8,8,0,0,1-.777-.683,10.4,10.4,0,0,0-1.045-.876,6.746,6.746,0,0,0-3.615-.88,6.068,6.068,0,0,0-3.643,1.045,3.385,3.385,0,0,0-1.455,2.9,3.469,3.469,0,0,0,1.723,2.984,10.568,10.568,0,0,0,4.288,1.553,50.757,50.757,0,0,1,5.6,1.271,34.711,34.711,0,0,1,5.606,2.057,9.885,9.885,0,0,1,4.284,4.237,14.674,14.674,0,0,1,1.723,7.4A16.363,16.363,0,0,1,164.707,46a13.322,13.322,0,0,1-4.59,5.178,20.943,20.943,0,0,1-11.679,3.578,22.666,22.666,0,0,1-6.011-.777,16.273,16.273,0,0,1-4.59-1.921,16.3,16.3,0,0,1-4.994-4.19Z" transform="translate(-69.059 -1.984)"/><path class="a" d="M232.864,34.716l-4.392-.273v9.3a4.674,4.674,0,0,0,.574,2.636,2.478,2.478,0,0,0,2.161.81,22.509,22.509,0,0,1,2.434.1,4.834,4.834,0,0,1,1.789.645q1.544.876,1.549,4.524,0,4.237-1.883,5.178a6.374,6.374,0,0,1-1.789.574,19.3,19.3,0,0,1-2.264.1q-7.019,0-10.667-3.173T216.732,44.4V34.443a17.624,17.624,0,0,1-2.768.2A3.1,3.1,0,0,1,211.5,33.5a6.079,6.079,0,0,1-.979-3.912,16.946,16.946,0,0,1,.339-4.02,3.629,3.629,0,0,1,.941-1.789,4.147,4.147,0,0,1,2.707-.876l2.231.268V16.216a19.181,19.181,0,0,1,.1-2.3,4.27,4.27,0,0,1,.645-1.619q.876-1.685,5.178-1.69,4.59,0,5.47,2.5a12.823,12.823,0,0,1,.334,3.446v6.614q2.97-.268,4.491-.268a19.733,19.733,0,0,1,2.3.1,5.55,5.55,0,0,1,1.789.64q1.751.885,1.756,5.2t-1.826,5.178a6.176,6.176,0,0,1-1.751.593,19.836,19.836,0,0,1-2.354.1Z" transform="translate(-111.415 -5.616)"/><path class="a" d="M285.4,11.166a2.9,2.9,0,0,1-1.789,1.384,11.731,11.731,0,0,1-3.413.4,11.717,11.717,0,0,1-3.408-.4A2.824,2.824,0,0,1,275,11.138a5.649,5.649,0,0,1-.607-1.789,19.725,19.725,0,0,1-.1-2.325,19.876,19.876,0,0,1,.1-2.354,5.474,5.474,0,0,1,.574-1.718q.941-1.822,5.267-1.822,4.237,0,5.131,1.822A5.55,5.55,0,0,1,286,4.741a20.1,20.1,0,0,1,.1,2.33A20.1,20.1,0,0,1,286,9.4,5.621,5.621,0,0,1,285.4,11.166ZM274.287,23.687a19.871,19.871,0,0,1,.1-2.33,6.263,6.263,0,0,1,.574-1.789q.941-1.751,5.267-1.756,3.234,0,4.59,1.149a3.73,3.73,0,0,1,1.214,2.9c.042.471.066,1.1.066,1.958V47.455a19.956,19.956,0,0,1-.1,2.325,5.508,5.508,0,0,1-.64,1.789q-.88,1.751-5.2,1.751T274.984,51.5a6.191,6.191,0,0,1-.574-1.756,19.676,19.676,0,0,1-.1-2.354Z" transform="translate(-145.171 -0.598)"/><path class="a" d="M323.937,34.5l8.977,7.423a10.582,10.582,0,0,1,2.114,2.161,2.824,2.824,0,0,1,.438,1.412q0,1.615-2.09,4.387-2.292,2.824-4.053,2.824-1.483,0-4.119-1.958l-.673-.471q-1.553-1.285-4.792-4.491t-4.929-4.557v5.178a18.822,18.822,0,0,1-.1,2.354,5.4,5.4,0,0,1-.64,1.789c-.584,1.172-2.321,1.756-5.178,1.756s-4.571-.607-5.178-1.822a6.327,6.327,0,0,1-.574-1.789,20.1,20.1,0,0,1-.1-2.354V5.941a20.1,20.1,0,0,1,.1-2.33,6.422,6.422,0,0,1,.574-1.789Q304.628,0,308.949,0q3.239,0,4.59,1.149a3.79,3.79,0,0,1,1.215,2.97A18.087,18.087,0,0,1,314.824,6V27.411q1.215-1.017,3.676-3.441t3.681-3.446l.81-.541a7.106,7.106,0,0,1,4.053-1.822q1.7,0,3.879,2.735,2.2,2.73,2.194,4.288t-2.495,3.643Z" transform="translate(-160.387)"/><path class="a" d="M397.017,34.5,406,41.923a10.715,10.715,0,0,1,2.128,2.161,2.824,2.824,0,0,1,.438,1.412q0,1.615-2.095,4.387-2.292,2.824-4.048,2.824-1.492,0-4.119-1.958l-.678-.471q-1.553-1.285-4.792-4.491T387.9,41.231v5.178a20.051,20.051,0,0,1-.1,2.354,5.422,5.422,0,0,1-.645,1.789q-.876,1.756-5.178,1.756c-2.824,0-4.571-.607-5.178-1.822a6.177,6.177,0,0,1-.574-1.789,18.881,18.881,0,0,1-.1-2.354V5.941a18.875,18.875,0,0,1,.1-2.33,6.265,6.265,0,0,1,.574-1.789Q377.708,0,382.029,0q3.239,0,4.594,1.149a3.811,3.811,0,0,1,1.214,2.97c.042.4.066,1.036.066,1.883V27.411q1.214-1.017,3.681-3.441t3.676-3.446l.81-.541a7.106,7.106,0,0,1,4.053-1.822q1.7,0,3.884,2.735t2.184,4.288q0,1.558-2.5,3.643Z" transform="translate(-199.07)"/><path class="b" d="M0,26.43a26.582,26.582,0,0,0,52.967,3.253L23.358.05A26.577,26.577,0,0,0,0,26.43Z" transform="translate(0 -0.026)"/><path class="c" d="M75.807,29.821a27.015,27.015,0,0,0,3.225-.2L49.422,0a26.954,26.954,0,0,0-.2,3.225,26.587,26.587,0,0,0,26.587,26.6Z" transform="translate(-26.051)"/><path class="b" d="M460.086,11.166A2.9,2.9,0,0,1,458.3,12.55a11.769,11.769,0,0,1-3.413.4,11.693,11.693,0,0,1-3.408-.4,2.824,2.824,0,0,1-1.789-1.412,5.649,5.649,0,0,1-.607-1.789,18.734,18.734,0,0,1-.1-2.325,18.886,18.886,0,0,1,.1-2.354,5.476,5.476,0,0,1,.574-1.718q.941-1.822,5.263-1.822t5.131,1.822a5.461,5.461,0,0,1,.645,1.789,20.1,20.1,0,0,1,.1,2.33,20.111,20.111,0,0,1-.1,2.33,5.621,5.621,0,0,1-.607,1.765Zm-11.1,12.521a18.881,18.881,0,0,1,.1-2.33,6.267,6.267,0,0,1,.574-1.789q.941-1.751,5.263-1.756,3.239,0,4.594,1.149a3.73,3.73,0,0,1,1.214,2.9c.042.471.066,1.1.066,1.958V47.455a19.949,19.949,0,0,1-.1,2.325,5.422,5.422,0,0,1-.645,1.789q-.876,1.756-5.178,1.756c-2.824,0-4.571-.607-5.178-1.822a6.191,6.191,0,0,1-.574-1.756,18.724,18.724,0,0,1-.1-2.354Z" transform="translate(-237.628 -0.598)"/><path class="b" d="M500.162,34.716l-4.387-.273v9.3a4.635,4.635,0,0,0,.574,2.636,2.484,2.484,0,0,0,2.161.81,22.473,22.473,0,0,1,2.429.1,4.834,4.834,0,0,1,1.789.645q1.553.876,1.553,4.524,0,4.237-1.883,5.178a6.327,6.327,0,0,1-1.789.574,19.3,19.3,0,0,1-2.259.1q-7.028,0-10.667-3.173t-3.676-10.7V34.443a17.624,17.624,0,0,1-2.768.2,3.093,3.093,0,0,1-2.462-1.149,6.059,6.059,0,0,1-.979-3.912,17.021,17.021,0,0,1,.334-4.02,3.629,3.629,0,0,1,.941-1.789,4.147,4.147,0,0,1,2.7-.876l2.227.268V16.216a18.015,18.015,0,0,1,.1-2.3,4.18,4.18,0,0,1,.64-1.619q.876-1.685,5.178-1.69,4.59,0,5.47,2.5a12.587,12.587,0,0,1,.339,3.446v6.614q2.966-.268,4.486-.268a19.733,19.733,0,0,1,2.3.1,5.508,5.508,0,0,1,1.789.64q1.761.885,1.756,5.2t-1.822,5.178a6.223,6.223,0,0,1-1.789.574,19.873,19.873,0,0,1-2.288.122Z" transform="translate(-252.878 -5.616)"/></g></svg>